<svg xmlns="http://www.w3.org/2000/svg" width="880" height="880" preserveAspectRatio="xMidYMid meet" version="1.0" viewBox="0 0 660 660"><metadata>Created by potrace 1.11, written by Peter Selinger 2001-2013</metadata><g fill="#000" stroke="none"><path d="M2135 6176 c-118 -38 -208 -114 -262 -224 l-38 -76 -3 -292 -3 -291 -78 -5 c-146 -8 -272 -94 -335 -228 l-31 -65 -3 -2005 c-2 -1362 1 -2021 8 -2054 38 -180 196 -342 381 -391 46 -13 296 -15 1632 -15 l1577 0 0 450 0 450 220 0 220 0 0 1070 0 1070 -1637 -3 c-1851 -3 -1666 6 -1858 -86 -122 -58 -261 -163 -332 -251 -77 -94 -167 -286 -193 -415 -5 -23 -8 171 -6 445 l2 485 27 80 c40 113 92 220 143 291 111 157 335 298 554 350 70 16 189 18 1688 21 l1612 4 0 850 0 849 -1622 -1 c-1282 0 -1631 -3 -1663 -13z m3115 -4211 l0 -365 -1482 2 -1483 3 -67 32 c-84 40 -142 97 -181 181 -27 57 -31 78 -31 147 0 69 4 90 31 147 50 106 149 186 257 208 22 4 697 8 1499 9 l1457 1 0 -365z m-450 -905 l0 -370 -1477 2 -1478 3 -60 24 c-83 34 -173 124 -205 206 -31 81 -31 188 -1 267 42 110 155 204 271 227 25 5 699 9 1498 10 l1452 1 0 -370z" transform="translate(0.000000,660.000000) scale(0.100000,-0.100000)"/></g></svg>